<?xml version="1.0" encoding="UTF-8" standalone="no"?>
<!DOCTYPE svg PUBLIC "-//W3C//DTD SVG 1.1//EN"
 "http://www.w3.org/Graphics/SVG/1.1/DTD/svg11.dtd">
<!-- Generated by graphviz version 5.0.0 (20220707.1540)
 -->
<!-- Title: dependencies Pages: 1 -->
<svg width="3064pt" height="174pt"
 viewBox="0.00 0.00 3064.00 173.80" xmlns="http://www.w3.org/2000/svg" xmlns:xlink="http://www.w3.org/1999/xlink">
<g id="graph0" class="graph" transform="scale(1 1) rotate(0) translate(4 169.8)">
<title>dependencies</title>
<polygon fill="white" stroke="transparent" points="-4,4 -4,-169.8 3060,-169.8 3060,4 -4,4"/>
<text text-anchor="middle" x="1528" y="-8.2" font-family="sans-serif" font-size="14.00">dependencies</text>
<g id="clust1" class="cluster">
<title>cluster_UserModule</title>
<polygon fill="none" stroke="black" stroke-dasharray="1,5" points="8,-32.8 8,-157.8 3048,-157.8 3048,-32.8 8,-32.8"/>
</g>
<g id="clust2" class="cluster">
<title>cluster_UserModule_declarations</title>
<polygon fill="none" stroke="black" points="172,-40.8 172,-92.8 3040,-92.8 3040,-40.8 172,-40.8"/>
</g>
<g id="clust22" class="cluster">
<title>cluster_UserModule_imports</title>
<polygon fill="none" stroke="black" points="16,-40.8 16,-92.8 164,-92.8 164,-40.8 16,-40.8"/>
</g>
<!-- AboutusComponent -->
<g id="node1" class="node">
<title>AboutusComponent</title>
<polygon fill="#ffffb3" stroke="black" points="3032.28,-84.8 2903.72,-84.8 2903.72,-48.8 3032.28,-48.8 3032.28,-84.8"/>
<text text-anchor="middle" x="2968" y="-62.6" font-family="Times,serif" font-size="14.00">AboutusComponent</text>
</g>
<!-- UserModule -->
<g id="node20" class="node">
<title>UserModule</title>
<polygon fill="#8dd3c7" stroke="black" points="1569.99,-149.8 1566.99,-153.8 1545.99,-153.8 1542.99,-149.8 1484.01,-149.8 1484.01,-113.8 1569.99,-113.8 1569.99,-149.8"/>
<text text-anchor="middle" x="1527" y="-127.6" font-family="Times,serif" font-size="14.00">UserModule</text>
</g>
<!-- AboutusComponent&#45;&gt;UserModule -->
<g id="edge1" class="edge">
<title>AboutusComponent&#45;&gt;UserModule</title>
<path fill="none" stroke="black" d="M2968,-84.95C2968,-108.56 2968,-146.8 2968,-146.8 2968,-146.8 1580.13,-146.8 1580.13,-146.8"/>
<polygon fill="black" stroke="black" points="1580.13,-143.3 1570.13,-146.8 1580.13,-150.3 1580.13,-143.3"/>
</g>
<!-- AuthorComponent -->
<g id="node2" class="node">
<title>AuthorComponent</title>
<polygon fill="#ffffb3" stroke="black" points="2885.49,-84.8 2764.51,-84.8 2764.51,-48.8 2885.49,-48.8 2885.49,-84.8"/>
<text text-anchor="middle" x="2825" y="-62.6" font-family="Times,serif" font-size="14.00">AuthorComponent</text>
</g>
<!-- AuthorComponent&#45;&gt;UserModule -->
<g id="edge2" class="edge">
<title>AuthorComponent&#45;&gt;UserModule</title>
<path fill="none" stroke="black" d="M2825,-84.81C2825,-107.29 2825,-142.8 2825,-142.8 2825,-142.8 1580.19,-142.8 1580.19,-142.8"/>
<polygon fill="black" stroke="black" points="1580.19,-139.3 1570.19,-142.8 1580.19,-146.3 1580.19,-139.3"/>
</g>
<!-- AuthorDetailsComponent -->
<g id="node3" class="node">
<title>AuthorDetailsComponent</title>
<polygon fill="#ffffb3" stroke="black" points="2746.15,-84.8 2585.85,-84.8 2585.85,-48.8 2746.15,-48.8 2746.15,-84.8"/>
<text text-anchor="middle" x="2666" y="-62.6" font-family="Times,serif" font-size="14.00">AuthorDetailsComponent</text>
</g>
<!-- AuthorDetailsComponent&#45;&gt;UserModule -->
<g id="edge3" class="edge">
<title>AuthorDetailsComponent&#45;&gt;UserModule</title>
<path fill="none" stroke="black" d="M2666,-84.84C2666,-106.46 2666,-139.8 2666,-139.8 2666,-139.8 1580.26,-139.8 1580.26,-139.8"/>
<polygon fill="black" stroke="black" points="1580.26,-136.3 1570.26,-139.8 1580.26,-143.3 1580.26,-136.3"/>
</g>
<!-- AuthorsComponent -->
<g id="node4" class="node">
<title>AuthorsComponent</title>
<polygon fill="#ffffb3" stroke="black" points="2567.44,-84.8 2440.56,-84.8 2440.56,-48.8 2567.44,-48.8 2567.44,-84.8"/>
<text text-anchor="middle" x="2504" y="-62.6" font-family="Times,serif" font-size="14.00">AuthorsComponent</text>
</g>
<!-- AuthorsComponent&#45;&gt;UserModule -->
<g id="edge4" class="edge">
<title>AuthorsComponent&#45;&gt;UserModule</title>
<path fill="none" stroke="black" d="M2504,-84.93C2504,-105.37 2504,-135.8 2504,-135.8 2504,-135.8 1580.24,-135.8 1580.24,-135.8"/>
<polygon fill="black" stroke="black" points="1580.24,-132.3 1570.24,-135.8 1580.24,-139.3 1580.24,-132.3"/>
</g>
<!-- BooksComponent -->
<g id="node5" class="node">
<title>BooksComponent</title>
<polygon fill="#ffffb3" stroke="black" points="2422.62,-84.8 2305.38,-84.8 2305.38,-48.8 2422.62,-48.8 2422.62,-84.8"/>
<text text-anchor="middle" x="2364" y="-62.6" font-family="Times,serif" font-size="14.00">BooksComponent</text>
</g>
<!-- BooksComponent&#45;&gt;UserModule -->
<g id="edge5" class="edge">
<title>BooksComponent&#45;&gt;UserModule</title>
<path fill="none" stroke="black" d="M2364,-84.91C2364,-104.14 2364,-131.8 2364,-131.8 2364,-131.8 1580.24,-131.8 1580.24,-131.8"/>
<polygon fill="black" stroke="black" points="1580.24,-128.3 1570.24,-131.8 1580.24,-135.3 1580.24,-128.3"/>
</g>
<!-- CategoriesComponent -->
<g id="node6" class="node">
<title>CategoriesComponent</title>
<polygon fill="#ffffb3" stroke="black" points="2287.7,-84.8 2146.3,-84.8 2146.3,-48.8 2287.7,-48.8 2287.7,-84.8"/>
<text text-anchor="middle" x="2217" y="-62.6" font-family="Times,serif" font-size="14.00">CategoriesComponent</text>
</g>
<!-- CategoriesComponent&#45;&gt;UserModule -->
<g id="edge6" class="edge">
<title>CategoriesComponent&#45;&gt;UserModule</title>
<path fill="none" stroke="black" d="M2217,-85.07C2217,-103.36 2217,-128.8 2217,-128.8 2217,-128.8 1580.16,-128.8 1580.16,-128.8"/>
<polygon fill="black" stroke="black" points="1580.16,-125.3 1570.16,-128.8 1580.16,-132.3 1580.16,-125.3"/>
</g>
<!-- CategoryComponent -->
<g id="node7" class="node">
<title>CategoryComponent</title>
<polygon fill="#ffffb3" stroke="black" points="2128.15,-84.8 1995.85,-84.8 1995.85,-48.8 2128.15,-48.8 2128.15,-84.8"/>
<text text-anchor="middle" x="2062" y="-62.6" font-family="Times,serif" font-size="14.00">CategoryComponent</text>
</g>
<!-- CategoryComponent&#45;&gt;UserModule -->
<g id="edge7" class="edge">
<title>CategoryComponent&#45;&gt;UserModule</title>
<path fill="none" stroke="black" d="M2062,-84.83C2062,-101.86 2062,-124.8 2062,-124.8 2062,-124.8 1580.33,-124.8 1580.33,-124.8"/>
<polygon fill="black" stroke="black" points="1580.33,-121.3 1570.33,-124.8 1580.33,-128.3 1580.33,-121.3"/>
</g>
<!-- CategoryDetailsComponent -->
<g id="node8" class="node">
<title>CategoryDetailsComponent</title>
<polygon fill="#ffffb3" stroke="black" points="1978.3,-84.8 1805.7,-84.8 1805.7,-48.8 1978.3,-48.8 1978.3,-84.8"/>
<text text-anchor="middle" x="1892" y="-62.6" font-family="Times,serif" font-size="14.00">CategoryDetailsComponent</text>
</g>
<!-- CategoryDetailsComponent&#45;&gt;UserModule -->
<g id="edge8" class="edge">
<title>CategoryDetailsComponent&#45;&gt;UserModule</title>
<path fill="none" stroke="black" d="M1892,-84.81C1892,-100.85 1892,-121.8 1892,-121.8 1892,-121.8 1580.3,-121.8 1580.3,-121.8"/>
<polygon fill="black" stroke="black" points="1580.3,-118.3 1570.3,-121.8 1580.3,-125.3 1580.3,-118.3"/>
</g>
<!-- FooterComponent -->
<g id="node9" class="node">
<title>FooterComponent</title>
<polygon fill="#ffffb3" stroke="black" points="1787.88,-84.8 1670.12,-84.8 1670.12,-48.8 1787.88,-48.8 1787.88,-84.8"/>
<text text-anchor="middle" x="1729" y="-62.6" font-family="Times,serif" font-size="14.00">FooterComponent</text>
</g>
<!-- FooterComponent&#45;&gt;UserModule -->
<g id="edge9" class="edge">
<title>FooterComponent&#45;&gt;UserModule</title>
<path fill="none" stroke="black" d="M1729,-84.92C1729,-99.58 1729,-117.8 1729,-117.8 1729,-117.8 1580.33,-117.8 1580.33,-117.8"/>
<polygon fill="black" stroke="black" points="1580.33,-114.3 1570.33,-117.8 1580.33,-121.3 1580.33,-114.3"/>
</g>
<!-- HomeComponent -->
<g id="node10" class="node">
<title>HomeComponent</title>
<polygon fill="#ffffb3" stroke="black" points="1651.55,-84.8 1536.45,-84.8 1536.45,-48.8 1651.55,-48.8 1651.55,-84.8"/>
<text text-anchor="middle" x="1594" y="-62.6" font-family="Times,serif" font-size="14.00">HomeComponent</text>
</g>
<!-- HomeComponent&#45;&gt;UserModule -->
<g id="edge10" class="edge">
<title>HomeComponent&#45;&gt;UserModule</title>
<path fill="none" stroke="black" d="M1553.11,-84.91C1553.11,-84.91 1553.11,-103.79 1553.11,-103.79"/>
<polygon fill="black" stroke="black" points="1549.61,-103.79 1553.11,-113.79 1556.61,-103.79 1549.61,-103.79"/>
</g>
<!-- LoginComponent -->
<g id="node11" class="node">
<title>LoginComponent</title>
<polygon fill="#ffffb3" stroke="black" points="1518.27,-84.8 1403.73,-84.8 1403.73,-48.8 1518.27,-48.8 1518.27,-84.8"/>
<text text-anchor="middle" x="1461" y="-62.6" font-family="Times,serif" font-size="14.00">LoginComponent</text>
</g>
<!-- LoginComponent&#45;&gt;UserModule -->
<g id="edge11" class="edge">
<title>LoginComponent&#45;&gt;UserModule</title>
<path fill="none" stroke="black" d="M1501.2,-84.91C1501.2,-84.91 1501.2,-103.79 1501.2,-103.79"/>
<polygon fill="black" stroke="black" points="1497.7,-103.79 1501.2,-113.79 1504.7,-103.79 1497.7,-103.79"/>
</g>
<!-- NavbarComponent -->
<g id="node12" class="node">
<title>NavbarComponent</title>
<polygon fill="#ffffb3" stroke="black" points="1385.03,-84.8 1262.97,-84.8 1262.97,-48.8 1385.03,-48.8 1385.03,-84.8"/>
<text text-anchor="middle" x="1324" y="-62.6" font-family="Times,serif" font-size="14.00">NavbarComponent</text>
</g>
<!-- NavbarComponent&#45;&gt;UserModule -->
<g id="edge12" class="edge">
<title>NavbarComponent&#45;&gt;UserModule</title>
<path fill="none" stroke="black" d="M1324,-84.92C1324,-99.58 1324,-117.8 1324,-117.8 1324,-117.8 1473.95,-117.8 1473.95,-117.8"/>
<polygon fill="black" stroke="black" points="1473.95,-121.3 1483.95,-117.8 1473.95,-114.3 1473.95,-121.3"/>
</g>
<!-- ProfileComponent -->
<g id="node13" class="node">
<title>ProfileComponent</title>
<polygon fill="#ffffb3" stroke="black" points="1244.94,-84.8 1125.06,-84.8 1125.06,-48.8 1244.94,-48.8 1244.94,-84.8"/>
<text text-anchor="middle" x="1185" y="-62.6" font-family="Times,serif" font-size="14.00">ProfileComponent</text>
</g>
<!-- ProfileComponent&#45;&gt;UserModule -->
<g id="edge13" class="edge">
<title>ProfileComponent&#45;&gt;UserModule</title>
<path fill="none" stroke="black" d="M1185,-84.81C1185,-100.85 1185,-121.8 1185,-121.8 1185,-121.8 1473.69,-121.8 1473.69,-121.8"/>
<polygon fill="black" stroke="black" points="1473.69,-125.3 1483.69,-121.8 1473.69,-118.3 1473.69,-125.3"/>
</g>
<!-- RegistrationComponent -->
<g id="node14" class="node">
<title>RegistrationComponent</title>
<polygon fill="#ffffb3" stroke="black" points="1106.77,-84.8 957.23,-84.8 957.23,-48.8 1106.77,-48.8 1106.77,-84.8"/>
<text text-anchor="middle" x="1032" y="-62.6" font-family="Times,serif" font-size="14.00">RegistrationComponent</text>
</g>
<!-- RegistrationComponent&#45;&gt;UserModule -->
<g id="edge14" class="edge">
<title>RegistrationComponent&#45;&gt;UserModule</title>
<path fill="none" stroke="black" d="M1032,-84.83C1032,-101.86 1032,-124.8 1032,-124.8 1032,-124.8 1473.94,-124.8 1473.94,-124.8"/>
<polygon fill="black" stroke="black" points="1473.94,-128.3 1483.94,-124.8 1473.94,-121.3 1473.94,-128.3"/>
</g>
<!-- ShelveComponent -->
<g id="node15" class="node">
<title>ShelveComponent</title>
<polygon fill="#ffffb3" stroke="black" points="938.94,-84.8 819.06,-84.8 819.06,-48.8 938.94,-48.8 938.94,-84.8"/>
<text text-anchor="middle" x="879" y="-62.6" font-family="Times,serif" font-size="14.00">ShelveComponent</text>
</g>
<!-- ShelveComponent&#45;&gt;UserModule -->
<g id="edge15" class="edge">
<title>ShelveComponent&#45;&gt;UserModule</title>
<path fill="none" stroke="black" d="M879,-85.07C879,-103.36 879,-128.8 879,-128.8 879,-128.8 1473.98,-128.8 1473.98,-128.8"/>
<polygon fill="black" stroke="black" points="1473.98,-132.3 1483.98,-128.8 1473.98,-125.3 1473.98,-132.3"/>
</g>
<!-- ShelveMainComponent -->
<g id="node16" class="node">
<title>ShelveMainComponent</title>
<polygon fill="#ffffb3" stroke="black" points="801.49,-84.8 652.51,-84.8 652.51,-48.8 801.49,-48.8 801.49,-84.8"/>
<text text-anchor="middle" x="727" y="-62.6" font-family="Times,serif" font-size="14.00">ShelveMainComponent</text>
</g>
<!-- ShelveMainComponent&#45;&gt;UserModule -->
<g id="edge16" class="edge">
<title>ShelveMainComponent&#45;&gt;UserModule</title>
<path fill="none" stroke="black" d="M727,-84.91C727,-104.14 727,-131.8 727,-131.8 727,-131.8 1473.99,-131.8 1473.99,-131.8"/>
<polygon fill="black" stroke="black" points="1473.99,-135.3 1483.99,-131.8 1473.99,-128.3 1473.99,-135.3"/>
</g>
<!-- ShelveSidebarComponent -->
<g id="node17" class="node">
<title>ShelveSidebarComponent</title>
<polygon fill="#ffffb3" stroke="black" points="634.2,-84.8 471.8,-84.8 471.8,-48.8 634.2,-48.8 634.2,-84.8"/>
<text text-anchor="middle" x="553" y="-62.6" font-family="Times,serif" font-size="14.00">ShelveSidebarComponent</text>
</g>
<!-- ShelveSidebarComponent&#45;&gt;UserModule -->
<g id="edge17" class="edge">
<title>ShelveSidebarComponent&#45;&gt;UserModule</title>
<path fill="none" stroke="black" d="M553,-84.93C553,-105.37 553,-135.8 553,-135.8 553,-135.8 1473.89,-135.8 1473.89,-135.8"/>
<polygon fill="black" stroke="black" points="1473.89,-139.3 1483.89,-135.8 1473.89,-132.3 1473.89,-139.3"/>
</g>
<!-- SingleBookComponent -->
<g id="node18" class="node">
<title>SingleBookComponent</title>
<polygon fill="#ffffb3" stroke="black" points="453.95,-84.8 306.05,-84.8 306.05,-48.8 453.95,-48.8 453.95,-84.8"/>
<text text-anchor="middle" x="380" y="-62.6" font-family="Times,serif" font-size="14.00">SingleBookComponent</text>
</g>
<!-- SingleBookComponent&#45;&gt;UserModule -->
<g id="edge18" class="edge">
<title>SingleBookComponent&#45;&gt;UserModule</title>
<path fill="none" stroke="black" d="M380,-84.84C380,-106.46 380,-139.8 380,-139.8 380,-139.8 1473.78,-139.8 1473.78,-139.8"/>
<polygon fill="black" stroke="black" points="1473.78,-143.3 1483.78,-139.8 1473.78,-136.3 1473.78,-143.3"/>
</g>
<!-- UserComponent -->
<g id="node19" class="node">
<title>UserComponent</title>
<polygon fill="#ffffb3" stroke="black" points="287.77,-84.8 180.23,-84.8 180.23,-48.8 287.77,-48.8 287.77,-84.8"/>
<text text-anchor="middle" x="234" y="-62.6" font-family="Times,serif" font-size="14.00">UserComponent</text>
</g>
<!-- UserComponent&#45;&gt;UserModule -->
<g id="edge19" class="edge">
<title>UserComponent&#45;&gt;UserModule</title>
<path fill="none" stroke="black" d="M234,-84.81C234,-107.29 234,-142.8 234,-142.8 234,-142.8 1473.98,-142.8 1473.98,-142.8"/>
<polygon fill="black" stroke="black" points="1473.98,-146.3 1483.98,-142.8 1473.98,-139.3 1473.98,-146.3"/>
</g>
<!-- UserRoutingModule -->
<g id="node21" class="node">
<title>UserRoutingModule</title>
<polygon fill="#8dd3c7" stroke="black" points="155.6,-84.8 152.6,-88.8 131.6,-88.8 128.6,-84.8 24.4,-84.8 24.4,-48.8 155.6,-48.8 155.6,-84.8"/>
<text text-anchor="middle" x="90" y="-62.6" font-family="Times,serif" font-size="14.00">UserRoutingModule</text>
</g>
<!-- UserRoutingModule&#45;&gt;UserModule -->
<g id="edge20" class="edge">
<title>UserRoutingModule&#45;&gt;UserModule</title>
<path fill="none" stroke="black" d="M90,-84.95C90,-108.56 90,-146.8 90,-146.8 90,-146.8 1473.99,-146.8 1473.99,-146.8"/>
<polygon fill="black" stroke="black" points="1473.99,-150.3 1483.99,-146.8 1473.99,-143.3 1473.99,-150.3"/>
</g>
</g>
</svg>
