<?xml version="1.0" encoding="UTF-8" standalone="no"?>
<!DOCTYPE svg PUBLIC "-//W3C//DTD SVG 1.1//EN"
 "http://www.w3.org/Graphics/SVG/1.1/DTD/svg11.dtd">
<!-- Generated by graphviz version 5.0.0 (20220707.1540)
 -->
<!-- Title: dependencies Pages: 1 -->
<svg width="4750pt" height="247pt"
 viewBox="0.00 0.00 4750.00 246.80" xmlns="http://www.w3.org/2000/svg" xmlns:xlink="http://www.w3.org/1999/xlink">
<g id="graph0" class="graph" transform="scale(1 1) rotate(0) translate(4 242.8)">
<title>dependencies</title>
<polygon fill="white" stroke="transparent" points="-4,4 -4,-242.8 4746,-242.8 4746,4 -4,4"/>
<text text-anchor="middle" x="2371" y="-8.2" font-family="sans-serif" font-size="14.00">dependencies</text>
<g id="clust1" class="cluster">
<title>cluster_AdminModule</title>
<polygon fill="none" stroke="black" stroke-dasharray="1,5" points="8,-32.8 8,-157.8 1232,-157.8 1232,-32.8 8,-32.8"/>
</g>
<g id="clust2" class="cluster">
<title>cluster_AdminModule_declarations</title>
<polygon fill="none" stroke="black" points="184,-40.8 184,-92.8 1224,-92.8 1224,-40.8 184,-40.8"/>
</g>
<g id="clust9" class="cluster">
<title>cluster_AdminModule_imports</title>
<polygon fill="none" stroke="black" points="16,-40.8 16,-92.8 176,-92.8 176,-40.8 16,-40.8"/>
</g>
<g id="clust19" class="cluster">
<title>cluster_AppModule</title>
<polygon fill="none" stroke="black" stroke-dasharray="1,5" points="1240,-32.8 1240,-230.8 1686,-230.8 1686,-32.8 1240,-32.8"/>
</g>
<g id="clust20" class="cluster">
<title>cluster_AppModule_declarations</title>
<polygon fill="none" stroke="black" points="1400,-40.8 1400,-92.8 1678,-92.8 1678,-40.8 1400,-40.8"/>
</g>
<g id="clust23" class="cluster">
<title>cluster_AppModule_imports</title>
<polygon fill="none" stroke="black" points="1248,-40.8 1248,-92.8 1392,-92.8 1392,-40.8 1248,-40.8"/>
</g>
<g id="clust25" class="cluster">
<title>cluster_AppModule_bootstrap</title>
<polygon fill="none" stroke="black" points="1415,-170.8 1415,-222.8 1539,-222.8 1539,-170.8 1415,-170.8"/>
</g>
<g id="clust33" class="cluster">
<title>cluster_UserModule</title>
<polygon fill="none" stroke="black" stroke-dasharray="1,5" points="1694,-32.8 1694,-157.8 4734,-157.8 4734,-32.8 1694,-32.8"/>
</g>
<g id="clust34" class="cluster">
<title>cluster_UserModule_declarations</title>
<polygon fill="none" stroke="black" points="1858,-40.8 1858,-92.8 4726,-92.8 4726,-40.8 1858,-40.8"/>
</g>
<g id="clust54" class="cluster">
<title>cluster_UserModule_imports</title>
<polygon fill="none" stroke="black" points="1702,-40.8 1702,-92.8 1850,-92.8 1850,-40.8 1702,-40.8"/>
</g>
<!-- AdminAuthorsComponent -->
<g id="node1" class="node">
<title>AdminAuthorsComponent</title>
<polygon fill="#ffffb3" stroke="black" points="1215.83,-84.8 1050.17,-84.8 1050.17,-48.8 1215.83,-48.8 1215.83,-84.8"/>
<text text-anchor="middle" x="1133" y="-62.6" font-family="Times,serif" font-size="14.00">AdminAuthorsComponent</text>
</g>
<!-- AdminModule -->
<g id="node7" class="node">
<title>AdminModule</title>
<polygon fill="#8dd3c7" stroke="black" points="649.44,-149.8 646.44,-153.8 625.44,-153.8 622.44,-149.8 550.56,-149.8 550.56,-113.8 649.44,-113.8 649.44,-149.8"/>
<text text-anchor="middle" x="600" y="-127.6" font-family="Times,serif" font-size="14.00">AdminModule</text>
</g>
<!-- AdminAuthorsComponent&#45;&gt;AdminModule -->
<g id="edge1" class="edge">
<title>AdminAuthorsComponent&#45;&gt;AdminModule</title>
<path fill="none" stroke="black" d="M1133,-84.93C1133,-105.37 1133,-135.8 1133,-135.8 1133,-135.8 659.66,-135.8 659.66,-135.8"/>
<polygon fill="black" stroke="black" points="659.66,-132.3 649.66,-135.8 659.66,-139.3 659.66,-132.3"/>
</g>
<!-- AdminBooksComponent -->
<g id="node2" class="node">
<title>AdminBooksComponent</title>
<polygon fill="#ffffb3" stroke="black" points="1032.01,-84.8 875.99,-84.8 875.99,-48.8 1032.01,-48.8 1032.01,-84.8"/>
<text text-anchor="middle" x="954" y="-62.6" font-family="Times,serif" font-size="14.00">AdminBooksComponent</text>
</g>
<!-- AdminBooksComponent&#45;&gt;AdminModule -->
<g id="edge2" class="edge">
<title>AdminBooksComponent&#45;&gt;AdminModule</title>
<path fill="none" stroke="black" d="M954,-85.07C954,-103.36 954,-128.8 954,-128.8 954,-128.8 659.22,-128.8 659.22,-128.8"/>
<polygon fill="black" stroke="black" points="659.22,-125.3 649.22,-128.8 659.22,-132.3 659.22,-125.3"/>
</g>
<!-- AdminCategoriesComponent -->
<g id="node3" class="node">
<title>AdminCategoriesComponent</title>
<polygon fill="#ffffb3" stroke="black" points="858.09,-84.8 677.91,-84.8 677.91,-48.8 858.09,-48.8 858.09,-84.8"/>
<text text-anchor="middle" x="768" y="-62.6" font-family="Times,serif" font-size="14.00">AdminCategoriesComponent</text>
</g>
<!-- AdminCategoriesComponent&#45;&gt;AdminModule -->
<g id="edge3" class="edge">
<title>AdminCategoriesComponent&#45;&gt;AdminModule</title>
<path fill="none" stroke="black" d="M768,-84.81C768,-100.85 768,-121.8 768,-121.8 768,-121.8 659.5,-121.8 659.5,-121.8"/>
<polygon fill="black" stroke="black" points="659.5,-118.3 649.5,-121.8 659.5,-125.3 659.5,-118.3"/>
</g>
<!-- AdminComponent -->
<g id="node4" class="node">
<title>AdminComponent</title>
<polygon fill="#ffffb3" stroke="black" points="660.22,-84.8 539.78,-84.8 539.78,-48.8 660.22,-48.8 660.22,-84.8"/>
<text text-anchor="middle" x="600" y="-62.6" font-family="Times,serif" font-size="14.00">AdminComponent</text>
</g>
<!-- AdminComponent&#45;&gt;AdminModule -->
<g id="edge4" class="edge">
<title>AdminComponent&#45;&gt;AdminModule</title>
<path fill="none" stroke="black" d="M600,-84.91C600,-84.91 600,-103.79 600,-103.79"/>
<polygon fill="black" stroke="black" points="596.5,-103.79 600,-113.79 603.5,-103.79 596.5,-103.79"/>
</g>
<!-- AdminLoginComponent -->
<g id="node5" class="node">
<title>AdminLoginComponent</title>
<polygon fill="#ffffb3" stroke="black" points="521.66,-84.8 368.34,-84.8 368.34,-48.8 521.66,-48.8 521.66,-84.8"/>
<text text-anchor="middle" x="445" y="-62.6" font-family="Times,serif" font-size="14.00">AdminLoginComponent</text>
</g>
<!-- AdminLoginComponent&#45;&gt;AdminModule -->
<g id="edge5" class="edge">
<title>AdminLoginComponent&#45;&gt;AdminModule</title>
<path fill="none" stroke="black" d="M445,-84.83C445,-101.2 445,-122.8 445,-122.8 445,-122.8 540.53,-122.8 540.53,-122.8"/>
<polygon fill="black" stroke="black" points="540.53,-126.3 550.53,-122.8 540.53,-119.3 540.53,-126.3"/>
</g>
<!-- AdminProfileComponent -->
<g id="node6" class="node">
<title>AdminProfileComponent</title>
<polygon fill="#ffffb3" stroke="black" points="350.32,-84.8 191.68,-84.8 191.68,-48.8 350.32,-48.8 350.32,-84.8"/>
<text text-anchor="middle" x="271" y="-62.6" font-family="Times,serif" font-size="14.00">AdminProfileComponent</text>
</g>
<!-- AdminProfileComponent&#45;&gt;AdminModule -->
<g id="edge6" class="edge">
<title>AdminProfileComponent&#45;&gt;AdminModule</title>
<path fill="none" stroke="black" d="M271,-84.91C271,-104.14 271,-131.8 271,-131.8 271,-131.8 540.75,-131.8 540.75,-131.8"/>
<polygon fill="black" stroke="black" points="540.75,-135.3 550.75,-131.8 540.75,-128.3 540.75,-135.3"/>
</g>
<!-- AdminRoutingModule -->
<g id="node8" class="node">
<title>AdminRoutingModule</title>
<polygon fill="#8dd3c7" stroke="black" points="167.56,-84.8 164.56,-88.8 143.56,-88.8 140.56,-84.8 24.44,-84.8 24.44,-48.8 167.56,-48.8 167.56,-84.8"/>
<text text-anchor="middle" x="96" y="-62.6" font-family="Times,serif" font-size="14.00">AdminRoutingModule</text>
</g>
<!-- AdminRoutingModule&#45;&gt;AdminModule -->
<g id="edge7" class="edge">
<title>AdminRoutingModule&#45;&gt;AdminModule</title>
<path fill="none" stroke="black" d="M96,-85.09C96,-107.01 96,-140.8 96,-140.8 96,-140.8 540.76,-140.8 540.76,-140.8"/>
<polygon fill="black" stroke="black" points="540.76,-144.3 550.76,-140.8 540.76,-137.3 540.76,-144.3"/>
</g>
<!-- AppComponent -->
<g id="node9" class="node">
<title>AppComponent</title>
<polygon fill="#ffffb3" stroke="black" points="1669.94,-84.8 1564.06,-84.8 1564.06,-48.8 1669.94,-48.8 1669.94,-84.8"/>
<text text-anchor="middle" x="1617" y="-62.6" font-family="Times,serif" font-size="14.00">AppComponent</text>
</g>
<!-- AppModule -->
<g id="node11" class="node">
<title>AppModule</title>
<polygon fill="#8dd3c7" stroke="black" points="1518.66,-149.8 1515.66,-153.8 1494.66,-153.8 1491.66,-149.8 1435.34,-149.8 1435.34,-113.8 1518.66,-113.8 1518.66,-149.8"/>
<text text-anchor="middle" x="1477" y="-127.6" font-family="Times,serif" font-size="14.00">AppModule</text>
</g>
<!-- AppComponent&#45;&gt;AppModule -->
<g id="edge8" class="edge">
<title>AppComponent&#45;&gt;AppModule</title>
<path fill="none" stroke="black" d="M1617,-84.95C1617,-108.56 1617,-146.8 1617,-146.8 1617,-146.8 1529,-146.8 1529,-146.8"/>
<polygon fill="black" stroke="black" points="1529,-143.3 1519,-146.8 1529,-150.3 1529,-143.3"/>
</g>
<!-- NotFoundComponent -->
<g id="node10" class="node">
<title>NotFoundComponent</title>
<polygon fill="#ffffb3" stroke="black" points="1546.12,-84.8 1407.88,-84.8 1407.88,-48.8 1546.12,-48.8 1546.12,-84.8"/>
<text text-anchor="middle" x="1477" y="-62.6" font-family="Times,serif" font-size="14.00">NotFoundComponent</text>
</g>
<!-- NotFoundComponent&#45;&gt;AppModule -->
<g id="edge9" class="edge">
<title>NotFoundComponent&#45;&gt;AppModule</title>
<path fill="none" stroke="black" d="M1477,-84.91C1477,-84.91 1477,-103.79 1477,-103.79"/>
<polygon fill="black" stroke="black" points="1473.5,-103.79 1477,-113.79 1480.5,-103.79 1473.5,-103.79"/>
</g>
<!-- AppComponent  -->
<g id="node13" class="node">
<title>AppComponent </title>
<polygon fill="#80b1d3" stroke="black" points="1531.44,-214.8 1422.56,-214.8 1422.56,-178.8 1531.44,-178.8 1531.44,-214.8"/>
<text text-anchor="middle" x="1477" y="-192.6" font-family="Times,serif" font-size="14.00">AppComponent </text>
</g>
<!-- AppModule&#45;&gt;AppComponent  -->
<g id="edge11" class="edge">
<title>AppModule&#45;&gt;AppComponent </title>
<path fill="none" stroke="black" stroke-dasharray="1,5" d="M1477,-149.91C1477,-149.91 1477,-168.79 1477,-168.79"/>
<polygon fill="black" stroke="black" points="1473.5,-168.79 1477,-178.79 1480.5,-168.79 1473.5,-168.79"/>
</g>
<!-- AppRoutingModule -->
<g id="node12" class="node">
<title>AppRoutingModule</title>
<polygon fill="#8dd3c7" stroke="black" points="1384.28,-84.8 1381.28,-88.8 1360.28,-88.8 1357.28,-84.8 1255.72,-84.8 1255.72,-48.8 1384.28,-48.8 1384.28,-84.8"/>
<text text-anchor="middle" x="1320" y="-62.6" font-family="Times,serif" font-size="14.00">AppRoutingModule</text>
</g>
<!-- AppRoutingModule&#45;&gt;AppModule -->
<g id="edge10" class="edge">
<title>AppRoutingModule&#45;&gt;AppModule</title>
<path fill="none" stroke="black" d="M1320,-84.81C1320,-107.29 1320,-142.8 1320,-142.8 1320,-142.8 1424.93,-142.8 1424.93,-142.8"/>
<polygon fill="black" stroke="black" points="1424.93,-146.3 1434.93,-142.8 1424.93,-139.3 1424.93,-146.3"/>
</g>
<!-- AboutusComponent -->
<g id="node14" class="node">
<title>AboutusComponent</title>
<polygon fill="#ffffb3" stroke="black" points="4718.28,-84.8 4589.72,-84.8 4589.72,-48.8 4718.28,-48.8 4718.28,-84.8"/>
<text text-anchor="middle" x="4654" y="-62.6" font-family="Times,serif" font-size="14.00">AboutusComponent</text>
</g>
<!-- UserModule -->
<g id="node33" class="node">
<title>UserModule</title>
<polygon fill="#8dd3c7" stroke="black" points="3255.99,-149.8 3252.99,-153.8 3231.99,-153.8 3228.99,-149.8 3170.01,-149.8 3170.01,-113.8 3255.99,-113.8 3255.99,-149.8"/>
<text text-anchor="middle" x="3213" y="-127.6" font-family="Times,serif" font-size="14.00">UserModule</text>
</g>
<!-- AboutusComponent&#45;&gt;UserModule -->
<g id="edge12" class="edge">
<title>AboutusComponent&#45;&gt;UserModule</title>
<path fill="none" stroke="black" d="M4654,-84.95C4654,-108.56 4654,-146.8 4654,-146.8 4654,-146.8 3266.13,-146.8 3266.13,-146.8"/>
<polygon fill="black" stroke="black" points="3266.13,-143.3 3256.13,-146.8 3266.13,-150.3 3266.13,-143.3"/>
</g>
<!-- AuthorComponent -->
<g id="node15" class="node">
<title>AuthorComponent</title>
<polygon fill="#ffffb3" stroke="black" points="4571.49,-84.8 4450.51,-84.8 4450.51,-48.8 4571.49,-48.8 4571.49,-84.8"/>
<text text-anchor="middle" x="4511" y="-62.6" font-family="Times,serif" font-size="14.00">AuthorComponent</text>
</g>
<!-- AuthorComponent&#45;&gt;UserModule -->
<g id="edge13" class="edge">
<title>AuthorComponent&#45;&gt;UserModule</title>
<path fill="none" stroke="black" d="M4511,-84.81C4511,-107.29 4511,-142.8 4511,-142.8 4511,-142.8 3266.19,-142.8 3266.19,-142.8"/>
<polygon fill="black" stroke="black" points="3266.19,-139.3 3256.19,-142.8 3266.19,-146.3 3266.19,-139.3"/>
</g>
<!-- AuthorDetailsComponent -->
<g id="node16" class="node">
<title>AuthorDetailsComponent</title>
<polygon fill="#ffffb3" stroke="black" points="4432.15,-84.8 4271.85,-84.8 4271.85,-48.8 4432.15,-48.8 4432.15,-84.8"/>
<text text-anchor="middle" x="4352" y="-62.6" font-family="Times,serif" font-size="14.00">AuthorDetailsComponent</text>
</g>
<!-- AuthorDetailsComponent&#45;&gt;UserModule -->
<g id="edge14" class="edge">
<title>AuthorDetailsComponent&#45;&gt;UserModule</title>
<path fill="none" stroke="black" d="M4352,-84.84C4352,-106.46 4352,-139.8 4352,-139.8 4352,-139.8 3266.26,-139.8 3266.26,-139.8"/>
<polygon fill="black" stroke="black" points="3266.26,-136.3 3256.26,-139.8 3266.26,-143.3 3266.26,-136.3"/>
</g>
<!-- AuthorsComponent -->
<g id="node17" class="node">
<title>AuthorsComponent</title>
<polygon fill="#ffffb3" stroke="black" points="4253.44,-84.8 4126.56,-84.8 4126.56,-48.8 4253.44,-48.8 4253.44,-84.8"/>
<text text-anchor="middle" x="4190" y="-62.6" font-family="Times,serif" font-size="14.00">AuthorsComponent</text>
</g>
<!-- AuthorsComponent&#45;&gt;UserModule -->
<g id="edge15" class="edge">
<title>AuthorsComponent&#45;&gt;UserModule</title>
<path fill="none" stroke="black" d="M4190,-84.93C4190,-105.37 4190,-135.8 4190,-135.8 4190,-135.8 3266.24,-135.8 3266.24,-135.8"/>
<polygon fill="black" stroke="black" points="3266.24,-132.3 3256.24,-135.8 3266.24,-139.3 3266.24,-132.3"/>
</g>
<!-- BooksComponent -->
<g id="node18" class="node">
<title>BooksComponent</title>
<polygon fill="#ffffb3" stroke="black" points="4108.62,-84.8 3991.38,-84.8 3991.38,-48.8 4108.62,-48.8 4108.62,-84.8"/>
<text text-anchor="middle" x="4050" y="-62.6" font-family="Times,serif" font-size="14.00">BooksComponent</text>
</g>
<!-- BooksComponent&#45;&gt;UserModule -->
<g id="edge16" class="edge">
<title>BooksComponent&#45;&gt;UserModule</title>
<path fill="none" stroke="black" d="M4050,-84.91C4050,-104.14 4050,-131.8 4050,-131.8 4050,-131.8 3266.24,-131.8 3266.24,-131.8"/>
<polygon fill="black" stroke="black" points="3266.24,-128.3 3256.24,-131.8 3266.24,-135.3 3266.24,-128.3"/>
</g>
<!-- CategoriesComponent -->
<g id="node19" class="node">
<title>CategoriesComponent</title>
<polygon fill="#ffffb3" stroke="black" points="3973.7,-84.8 3832.3,-84.8 3832.3,-48.8 3973.7,-48.8 3973.7,-84.8"/>
<text text-anchor="middle" x="3903" y="-62.6" font-family="Times,serif" font-size="14.00">CategoriesComponent</text>
</g>
<!-- CategoriesComponent&#45;&gt;UserModule -->
<g id="edge17" class="edge">
<title>CategoriesComponent&#45;&gt;UserModule</title>
<path fill="none" stroke="black" d="M3903,-85.07C3903,-103.36 3903,-128.8 3903,-128.8 3903,-128.8 3266.16,-128.8 3266.16,-128.8"/>
<polygon fill="black" stroke="black" points="3266.16,-125.3 3256.16,-128.8 3266.16,-132.3 3266.16,-125.3"/>
</g>
<!-- CategoryComponent -->
<g id="node20" class="node">
<title>CategoryComponent</title>
<polygon fill="#ffffb3" stroke="black" points="3814.15,-84.8 3681.85,-84.8 3681.85,-48.8 3814.15,-48.8 3814.15,-84.8"/>
<text text-anchor="middle" x="3748" y="-62.6" font-family="Times,serif" font-size="14.00">CategoryComponent</text>
</g>
<!-- CategoryComponent&#45;&gt;UserModule -->
<g id="edge18" class="edge">
<title>CategoryComponent&#45;&gt;UserModule</title>
<path fill="none" stroke="black" d="M3748,-84.83C3748,-101.86 3748,-124.8 3748,-124.8 3748,-124.8 3266.33,-124.8 3266.33,-124.8"/>
<polygon fill="black" stroke="black" points="3266.33,-121.3 3256.33,-124.8 3266.33,-128.3 3266.33,-121.3"/>
</g>
<!-- CategoryDetailsComponent -->
<g id="node21" class="node">
<title>CategoryDetailsComponent</title>
<polygon fill="#ffffb3" stroke="black" points="3664.3,-84.8 3491.7,-84.8 3491.7,-48.8 3664.3,-48.8 3664.3,-84.8"/>
<text text-anchor="middle" x="3578" y="-62.6" font-family="Times,serif" font-size="14.00">CategoryDetailsComponent</text>
</g>
<!-- CategoryDetailsComponent&#45;&gt;UserModule -->
<g id="edge19" class="edge">
<title>CategoryDetailsComponent&#45;&gt;UserModule</title>
<path fill="none" stroke="black" d="M3578,-84.81C3578,-100.85 3578,-121.8 3578,-121.8 3578,-121.8 3266.3,-121.8 3266.3,-121.8"/>
<polygon fill="black" stroke="black" points="3266.3,-118.3 3256.3,-121.8 3266.3,-125.3 3266.3,-118.3"/>
</g>
<!-- FooterComponent -->
<g id="node22" class="node">
<title>FooterComponent</title>
<polygon fill="#ffffb3" stroke="black" points="3473.88,-84.8 3356.12,-84.8 3356.12,-48.8 3473.88,-48.8 3473.88,-84.8"/>
<text text-anchor="middle" x="3415" y="-62.6" font-family="Times,serif" font-size="14.00">FooterComponent</text>
</g>
<!-- FooterComponent&#45;&gt;UserModule -->
<g id="edge20" class="edge">
<title>FooterComponent&#45;&gt;UserModule</title>
<path fill="none" stroke="black" d="M3415,-84.92C3415,-99.58 3415,-117.8 3415,-117.8 3415,-117.8 3266.33,-117.8 3266.33,-117.8"/>
<polygon fill="black" stroke="black" points="3266.33,-114.3 3256.33,-117.8 3266.33,-121.3 3266.33,-114.3"/>
</g>
<!-- HomeComponent -->
<g id="node23" class="node">
<title>HomeComponent</title>
<polygon fill="#ffffb3" stroke="black" points="3337.55,-84.8 3222.45,-84.8 3222.45,-48.8 3337.55,-48.8 3337.55,-84.8"/>
<text text-anchor="middle" x="3280" y="-62.6" font-family="Times,serif" font-size="14.00">HomeComponent</text>
</g>
<!-- HomeComponent&#45;&gt;UserModule -->
<g id="edge21" class="edge">
<title>HomeComponent&#45;&gt;UserModule</title>
<path fill="none" stroke="black" d="M3239.11,-84.91C3239.11,-84.91 3239.11,-103.79 3239.11,-103.79"/>
<polygon fill="black" stroke="black" points="3235.61,-103.79 3239.11,-113.79 3242.61,-103.79 3235.61,-103.79"/>
</g>
<!-- LoginComponent -->
<g id="node24" class="node">
<title>LoginComponent</title>
<polygon fill="#ffffb3" stroke="black" points="3204.27,-84.8 3089.73,-84.8 3089.73,-48.8 3204.27,-48.8 3204.27,-84.8"/>
<text text-anchor="middle" x="3147" y="-62.6" font-family="Times,serif" font-size="14.00">LoginComponent</text>
</g>
<!-- LoginComponent&#45;&gt;UserModule -->
<g id="edge22" class="edge">
<title>LoginComponent&#45;&gt;UserModule</title>
<path fill="none" stroke="black" d="M3187.2,-84.91C3187.2,-84.91 3187.2,-103.79 3187.2,-103.79"/>
<polygon fill="black" stroke="black" points="3183.7,-103.79 3187.2,-113.79 3190.7,-103.79 3183.7,-103.79"/>
</g>
<!-- NavbarComponent -->
<g id="node25" class="node">
<title>NavbarComponent</title>
<polygon fill="#ffffb3" stroke="black" points="3071.03,-84.8 2948.97,-84.8 2948.97,-48.8 3071.03,-48.8 3071.03,-84.8"/>
<text text-anchor="middle" x="3010" y="-62.6" font-family="Times,serif" font-size="14.00">NavbarComponent</text>
</g>
<!-- NavbarComponent&#45;&gt;UserModule -->
<g id="edge23" class="edge">
<title>NavbarComponent&#45;&gt;UserModule</title>
<path fill="none" stroke="black" d="M3010,-84.92C3010,-99.58 3010,-117.8 3010,-117.8 3010,-117.8 3159.95,-117.8 3159.95,-117.8"/>
<polygon fill="black" stroke="black" points="3159.95,-121.3 3169.95,-117.8 3159.95,-114.3 3159.95,-121.3"/>
</g>
<!-- ProfileComponent -->
<g id="node26" class="node">
<title>ProfileComponent</title>
<polygon fill="#ffffb3" stroke="black" points="2930.94,-84.8 2811.06,-84.8 2811.06,-48.8 2930.94,-48.8 2930.94,-84.8"/>
<text text-anchor="middle" x="2871" y="-62.6" font-family="Times,serif" font-size="14.00">ProfileComponent</text>
</g>
<!-- ProfileComponent&#45;&gt;UserModule -->
<g id="edge24" class="edge">
<title>ProfileComponent&#45;&gt;UserModule</title>
<path fill="none" stroke="black" d="M2871,-85.08C2871,-100.75 2871,-120.8 2871,-120.8 2871,-120.8 3159.69,-120.8 3159.69,-120.8"/>
<polygon fill="black" stroke="black" points="3159.69,-124.3 3169.69,-120.8 3159.69,-117.3 3159.69,-124.3"/>
</g>
<!-- RegistrationComponent -->
<g id="node27" class="node">
<title>RegistrationComponent</title>
<polygon fill="#ffffb3" stroke="black" points="2792.77,-84.8 2643.23,-84.8 2643.23,-48.8 2792.77,-48.8 2792.77,-84.8"/>
<text text-anchor="middle" x="2718" y="-62.6" font-family="Times,serif" font-size="14.00">RegistrationComponent</text>
</g>
<!-- RegistrationComponent&#45;&gt;UserModule -->
<g id="edge25" class="edge">
<title>RegistrationComponent&#45;&gt;UserModule</title>
<path fill="none" stroke="black" d="M2718,-84.84C2718,-101.53 2718,-123.8 2718,-123.8 2718,-123.8 3159.94,-123.8 3159.94,-123.8"/>
<polygon fill="black" stroke="black" points="3159.94,-127.3 3169.94,-123.8 3159.94,-120.3 3159.94,-127.3"/>
</g>
<!-- ShelveComponent -->
<g id="node28" class="node">
<title>ShelveComponent</title>
<polygon fill="#ffffb3" stroke="black" points="2624.94,-84.8 2505.06,-84.8 2505.06,-48.8 2624.94,-48.8 2624.94,-84.8"/>
<text text-anchor="middle" x="2565" y="-62.6" font-family="Times,serif" font-size="14.00">ShelveComponent</text>
</g>
<!-- ShelveComponent&#45;&gt;UserModule -->
<g id="edge26" class="edge">
<title>ShelveComponent&#45;&gt;UserModule</title>
<path fill="none" stroke="black" d="M2565,-85.1C2565,-103.07 2565,-127.8 2565,-127.8 2565,-127.8 3159.98,-127.8 3159.98,-127.8"/>
<polygon fill="black" stroke="black" points="3159.98,-131.3 3169.98,-127.8 3159.98,-124.3 3159.98,-131.3"/>
</g>
<!-- ShelveMainComponent -->
<g id="node29" class="node">
<title>ShelveMainComponent</title>
<polygon fill="#ffffb3" stroke="black" points="2487.49,-84.8 2338.51,-84.8 2338.51,-48.8 2487.49,-48.8 2487.49,-84.8"/>
<text text-anchor="middle" x="2413" y="-62.6" font-family="Times,serif" font-size="14.00">ShelveMainComponent</text>
</g>
<!-- ShelveMainComponent&#45;&gt;UserModule -->
<g id="edge27" class="edge">
<title>ShelveMainComponent&#45;&gt;UserModule</title>
<path fill="none" stroke="black" d="M2413,-84.97C2413,-103.89 2413,-130.8 2413,-130.8 2413,-130.8 3159.99,-130.8 3159.99,-130.8"/>
<polygon fill="black" stroke="black" points="3159.99,-134.3 3169.99,-130.8 3159.99,-127.3 3159.99,-134.3"/>
</g>
<!-- ShelveSidebarComponent -->
<g id="node30" class="node">
<title>ShelveSidebarComponent</title>
<polygon fill="#ffffb3" stroke="black" points="2320.2,-84.8 2157.8,-84.8 2157.8,-48.8 2320.2,-48.8 2320.2,-84.8"/>
<text text-anchor="middle" x="2239" y="-62.6" font-family="Times,serif" font-size="14.00">ShelveSidebarComponent</text>
</g>
<!-- ShelveSidebarComponent&#45;&gt;UserModule -->
<g id="edge28" class="edge">
<title>ShelveSidebarComponent&#45;&gt;UserModule</title>
<path fill="none" stroke="black" d="M2239,-85.11C2239,-104.95 2239,-133.8 2239,-133.8 2239,-133.8 3159.89,-133.8 3159.89,-133.8"/>
<polygon fill="black" stroke="black" points="3159.89,-137.3 3169.89,-133.8 3159.89,-130.3 3159.89,-137.3"/>
</g>
<!-- SingleBookComponent -->
<g id="node31" class="node">
<title>SingleBookComponent</title>
<polygon fill="#ffffb3" stroke="black" points="2139.95,-84.8 1992.05,-84.8 1992.05,-48.8 2139.95,-48.8 2139.95,-84.8"/>
<text text-anchor="middle" x="2066" y="-62.6" font-family="Times,serif" font-size="14.00">SingleBookComponent</text>
</g>
<!-- SingleBookComponent&#45;&gt;UserModule -->
<g id="edge29" class="edge">
<title>SingleBookComponent&#45;&gt;UserModule</title>
<path fill="none" stroke="black" d="M2066,-84.83C2066,-105.57 2066,-136.8 2066,-136.8 2066,-136.8 3159.78,-136.8 3159.78,-136.8"/>
<polygon fill="black" stroke="black" points="3159.78,-140.3 3169.78,-136.8 3159.78,-133.3 3159.78,-140.3"/>
</g>
<!-- UserComponent -->
<g id="node32" class="node">
<title>UserComponent</title>
<polygon fill="#ffffb3" stroke="black" points="1973.77,-84.8 1866.23,-84.8 1866.23,-48.8 1973.77,-48.8 1973.77,-84.8"/>
<text text-anchor="middle" x="1920" y="-62.6" font-family="Times,serif" font-size="14.00">UserComponent</text>
</g>
<!-- UserComponent&#45;&gt;UserModule -->
<g id="edge30" class="edge">
<title>UserComponent&#45;&gt;UserModule</title>
<path fill="none" stroke="black" d="M1920,-85.09C1920,-107.01 1920,-140.8 1920,-140.8 1920,-140.8 3159.98,-140.8 3159.98,-140.8"/>
<polygon fill="black" stroke="black" points="3159.98,-144.3 3169.98,-140.8 3159.98,-137.3 3159.98,-144.3"/>
</g>
<!-- UserRoutingModule -->
<g id="node34" class="node">
<title>UserRoutingModule</title>
<polygon fill="#8dd3c7" stroke="black" points="1841.6,-84.8 1838.6,-88.8 1817.6,-88.8 1814.6,-84.8 1710.4,-84.8 1710.4,-48.8 1841.6,-48.8 1841.6,-84.8"/>
<text text-anchor="middle" x="1776" y="-62.6" font-family="Times,serif" font-size="14.00">UserRoutingModule</text>
</g>
<!-- UserRoutingModule&#45;&gt;UserModule -->
<g id="edge31" class="edge">
<title>UserRoutingModule&#45;&gt;UserModule</title>
<path fill="none" stroke="black" d="M1776,-85.05C1776,-107.82 1776,-143.8 1776,-143.8 1776,-143.8 3159.99,-143.8 3159.99,-143.8"/>
<polygon fill="black" stroke="black" points="3159.99,-147.3 3169.99,-143.8 3159.99,-140.3 3159.99,-147.3"/>
</g>
</g>
</svg>
