<?xml version="1.0" encoding="UTF-8" standalone="no"?>
<!DOCTYPE svg PUBLIC "-//W3C//DTD SVG 1.1//EN"
 "http://www.w3.org/Graphics/SVG/1.1/DTD/svg11.dtd">
<!-- Generated by graphviz version 5.0.0 (20220707.1540)
 -->
<!-- Title: dependencies Pages: 1 -->
<svg width="1248pt" height="174pt"
 viewBox="0.00 0.00 1248.00 173.80" xmlns="http://www.w3.org/2000/svg" xmlns:xlink="http://www.w3.org/1999/xlink">
<g id="graph0" class="graph" transform="scale(1 1) rotate(0) translate(4 169.8)">
<title>dependencies</title>
<polygon fill="white" stroke="transparent" points="-4,4 -4,-169.8 1244,-169.8 1244,4 -4,4"/>
<text text-anchor="middle" x="620" y="-8.2" font-family="sans-serif" font-size="14.00">dependencies</text>
<g id="clust1" class="cluster">
<title>cluster_AdminModule</title>
<polygon fill="none" stroke="black" stroke-dasharray="1,5" points="8,-32.8 8,-157.8 1232,-157.8 1232,-32.8 8,-32.8"/>
</g>
<g id="clust2" class="cluster">
<title>cluster_AdminModule_declarations</title>
<polygon fill="none" stroke="black" points="184,-40.8 184,-92.8 1224,-92.8 1224,-40.8 184,-40.8"/>
</g>
<g id="clust9" class="cluster">
<title>cluster_AdminModule_imports</title>
<polygon fill="none" stroke="black" points="16,-40.8 16,-92.8 176,-92.8 176,-40.8 16,-40.8"/>
</g>
<!-- AdminAuthorsComponent -->
<g id="node1" class="node">
<title>AdminAuthorsComponent</title>
<polygon fill="#ffffb3" stroke="black" points="1215.83,-84.8 1050.17,-84.8 1050.17,-48.8 1215.83,-48.8 1215.83,-84.8"/>
<text text-anchor="middle" x="1133" y="-62.6" font-family="Times,serif" font-size="14.00">AdminAuthorsComponent</text>
</g>
<!-- AdminModule -->
<g id="node7" class="node">
<title>AdminModule</title>
<polygon fill="#8dd3c7" stroke="black" points="649.44,-149.8 646.44,-153.8 625.44,-153.8 622.44,-149.8 550.56,-149.8 550.56,-113.8 649.44,-113.8 649.44,-149.8"/>
<text text-anchor="middle" x="600" y="-127.6" font-family="Times,serif" font-size="14.00">AdminModule</text>
</g>
<!-- AdminAuthorsComponent&#45;&gt;AdminModule -->
<g id="edge1" class="edge">
<title>AdminAuthorsComponent&#45;&gt;AdminModule</title>
<path fill="none" stroke="black" d="M1133,-85.09C1133,-107.01 1133,-140.8 1133,-140.8 1133,-140.8 659.66,-140.8 659.66,-140.8"/>
<polygon fill="black" stroke="black" points="659.66,-137.3 649.66,-140.8 659.66,-144.3 659.66,-137.3"/>
</g>
<!-- AdminBooksComponent -->
<g id="node2" class="node">
<title>AdminBooksComponent</title>
<polygon fill="#ffffb3" stroke="black" points="1032.01,-84.8 875.99,-84.8 875.99,-48.8 1032.01,-48.8 1032.01,-84.8"/>
<text text-anchor="middle" x="954" y="-62.6" font-family="Times,serif" font-size="14.00">AdminBooksComponent</text>
</g>
<!-- AdminBooksComponent&#45;&gt;AdminModule -->
<g id="edge2" class="edge">
<title>AdminBooksComponent&#45;&gt;AdminModule</title>
<path fill="none" stroke="black" d="M954,-84.91C954,-104.14 954,-131.8 954,-131.8 954,-131.8 659.22,-131.8 659.22,-131.8"/>
<polygon fill="black" stroke="black" points="659.22,-128.3 649.22,-131.8 659.22,-135.3 659.22,-128.3"/>
</g>
<!-- AdminCategoriesComponent -->
<g id="node3" class="node">
<title>AdminCategoriesComponent</title>
<polygon fill="#ffffb3" stroke="black" points="858.09,-84.8 677.91,-84.8 677.91,-48.8 858.09,-48.8 858.09,-84.8"/>
<text text-anchor="middle" x="768" y="-62.6" font-family="Times,serif" font-size="14.00">AdminCategoriesComponent</text>
</g>
<!-- AdminCategoriesComponent&#45;&gt;AdminModule -->
<g id="edge3" class="edge">
<title>AdminCategoriesComponent&#45;&gt;AdminModule</title>
<path fill="none" stroke="black" d="M768,-84.83C768,-101.2 768,-122.8 768,-122.8 768,-122.8 659.5,-122.8 659.5,-122.8"/>
<polygon fill="black" stroke="black" points="659.5,-119.3 649.5,-122.8 659.5,-126.3 659.5,-119.3"/>
</g>
<!-- AdminComponent -->
<g id="node4" class="node">
<title>AdminComponent</title>
<polygon fill="#ffffb3" stroke="black" points="660.22,-84.8 539.78,-84.8 539.78,-48.8 660.22,-48.8 660.22,-84.8"/>
<text text-anchor="middle" x="600" y="-62.6" font-family="Times,serif" font-size="14.00">AdminComponent</text>
</g>
<!-- AdminComponent&#45;&gt;AdminModule -->
<g id="edge4" class="edge">
<title>AdminComponent&#45;&gt;AdminModule</title>
<path fill="none" stroke="black" d="M600,-84.91C600,-84.91 600,-103.79 600,-103.79"/>
<polygon fill="black" stroke="black" points="596.5,-103.79 600,-113.79 603.5,-103.79 596.5,-103.79"/>
</g>
<!-- AdminLoginComponent -->
<g id="node5" class="node">
<title>AdminLoginComponent</title>
<polygon fill="#ffffb3" stroke="black" points="521.66,-84.8 368.34,-84.8 368.34,-48.8 521.66,-48.8 521.66,-84.8"/>
<text text-anchor="middle" x="445" y="-62.6" font-family="Times,serif" font-size="14.00">AdminLoginComponent</text>
</g>
<!-- AdminLoginComponent&#45;&gt;AdminModule -->
<g id="edge5" class="edge">
<title>AdminLoginComponent&#45;&gt;AdminModule</title>
<path fill="none" stroke="black" d="M445,-84.83C445,-101.2 445,-122.8 445,-122.8 445,-122.8 540.53,-122.8 540.53,-122.8"/>
<polygon fill="black" stroke="black" points="540.53,-126.3 550.53,-122.8 540.53,-119.3 540.53,-126.3"/>
</g>
<!-- AdminProfileComponent -->
<g id="node6" class="node">
<title>AdminProfileComponent</title>
<polygon fill="#ffffb3" stroke="black" points="350.32,-84.8 191.68,-84.8 191.68,-48.8 350.32,-48.8 350.32,-84.8"/>
<text text-anchor="middle" x="271" y="-62.6" font-family="Times,serif" font-size="14.00">AdminProfileComponent</text>
</g>
<!-- AdminProfileComponent&#45;&gt;AdminModule -->
<g id="edge6" class="edge">
<title>AdminProfileComponent&#45;&gt;AdminModule</title>
<path fill="none" stroke="black" d="M271,-84.91C271,-104.14 271,-131.8 271,-131.8 271,-131.8 540.75,-131.8 540.75,-131.8"/>
<polygon fill="black" stroke="black" points="540.75,-135.3 550.75,-131.8 540.75,-128.3 540.75,-135.3"/>
</g>
<!-- AdminRoutingModule -->
<g id="node8" class="node">
<title>AdminRoutingModule</title>
<polygon fill="#8dd3c7" stroke="black" points="167.56,-84.8 164.56,-88.8 143.56,-88.8 140.56,-84.8 24.44,-84.8 24.44,-48.8 167.56,-48.8 167.56,-84.8"/>
<text text-anchor="middle" x="96" y="-62.6" font-family="Times,serif" font-size="14.00">AdminRoutingModule</text>
</g>
<!-- AdminRoutingModule&#45;&gt;AdminModule -->
<g id="edge7" class="edge">
<title>AdminRoutingModule&#45;&gt;AdminModule</title>
<path fill="none" stroke="black" d="M96,-85.09C96,-107.01 96,-140.8 96,-140.8 96,-140.8 540.76,-140.8 540.76,-140.8"/>
<polygon fill="black" stroke="black" points="540.76,-144.3 550.76,-140.8 540.76,-137.3 540.76,-144.3"/>
</g>
</g>
</svg>
